<?xml version="1.0" encoding="UTF-8" standalone="no"?>
<!-- Created with Inkscape (http://www.inkscape.org/) -->

<svg
   xmlns:dc="http://purl.org/dc/elements/1.1/"
   xmlns:cc="http://creativecommons.org/ns#"
   xmlns:rdf="http://www.w3.org/1999/02/22-rdf-syntax-ns#"
   xmlns:svg="http://www.w3.org/2000/svg"
   xmlns="http://www.w3.org/2000/svg"
   xmlns:sodipodi="http://sodipodi.sourceforge.net/DTD/sodipodi-0.dtd"
   xmlns:inkscape="http://www.inkscape.org/namespaces/inkscape"
   width="400"
   height="400"
   viewBox="0 0 105.83333 105.83334"
   version="1.1"
   id="svg8"
   inkscape:version="0.92.3 (2405546, 2018-03-11)"
   sodipodi:docname="clear_search.svg">
  <defs
     id="defs2" />
  <sodipodi:namedview
     id="base"
     pagecolor="#ffffff"
     bordercolor="#666666"
     borderopacity="1.0"
     inkscape:pageopacity="0.0"
     inkscape:pageshadow="2"
     inkscape:zoom="1.4"
     inkscape:cx="209.30364"
     inkscape:cy="180.64494"
     inkscape:document-units="mm"
     inkscape:current-layer="layer1"
     showgrid="false"
     units="px"
     inkscape:window-width="1920"
     inkscape:window-height="1012"
     inkscape:window-x="0"
     inkscape:window-y="0"
     inkscape:window-maximized="1" />
  <metadata
     id="metadata5">
    <rdf:RDF>
      <cc:Work
         rdf:about="">
        <dc:format>image/svg+xml</dc:format>
        <dc:type
           rdf:resource="http://purl.org/dc/dcmitype/StillImage" />
        <dc:title />
      </cc:Work>
    </rdf:RDF>
  </metadata>
  <g
     inkscape:label="Calque 1"
     inkscape:groupmode="layer"
     id="layer1"
     transform="translate(0,-191.16665)">
    <path
       style="fill:none;fill-opacity:1;stroke:#aa0000;stroke-width:3.92764783;stroke-miterlimit:4;stroke-dasharray:none;stroke-opacity:1"
       d="m 30.836365,279.58003 c -0.369572,-0.112 -0.993813,-0.41453 -1.387206,-0.67229 -0.393393,-0.25776 -6.302822,-7.9109 -13.13207,-17.00698 C 2.9979538,244.1606 3.2067613,244.48887 3.818895,242.25189 c 0.1856118,-0.6783 4.1560719,-6.13922 12.251917,-16.85114 6.587524,-8.71621 12.338983,-16.22616 12.781021,-16.68879 1.676447,-1.75452 -1.162641,-1.28769 41.756014,-1.56867 12.536561,0.15286 20.246102,0.14007 25.017251,0.14007 4.350761,0 6.548142,1.39902 6.548142,4.81323 l 0.072,30.82021 c 0.0691,29.61527 0.0306,32.9937 -0.34341,33.98142 -0.49069,1.29567 -1.57857,2.28657 -2.919113,2.65888 -1.151174,0.31971 -67.093437,0.342 -68.146293,0.023 z"
       id="path826"
       inkscape:connector-curvature="0"
       sodipodi:nodetypes="csscsccscscccc" />
    <path
       style="fill:#aa0000;fill-opacity:1;stroke-width:0.31021485"
       d="m 75.201182,226.0241 c -0.490092,0.008 -0.988873,0.0875 -1.485642,0.2472 -0.879381,0.2827 -2.508235,1.68437 -6.166132,5.30456 l -4.971313,4.9198 -4.645343,-4.68109 c -2.554955,-2.5746 -5.094821,-4.87589 -5.643851,-5.1143 -2.596424,-1.12749 -5.855891,0.0156 -7.143422,2.50535 -0.579373,1.12041 -0.625287,3.78774 -0.08301,4.83135 0.217328,0.41822 2.499954,2.88973 5.072497,5.49177 l 4.677457,4.73078 -4.844077,4.88589 c -4.021228,4.05572 -4.903603,5.11027 -5.196097,6.20853 -0.45344,1.70255 -0.162914,3.18886 0.913678,4.67503 1.427336,1.97041 4.100031,2.76049 6.417573,1.89703 0.4803,-0.17895 3.03903,-2.48217 5.685649,-5.11853 l 4.811974,-4.79318 4.649588,4.68593 c 5.778159,5.82356 7.164059,6.56904 10.006242,5.38151 2.302152,-0.9619 3.555965,-2.76407 3.555965,-5.11128 0,-0.79793 -0.176695,-1.78568 -0.392617,-2.19513 -0.215933,-0.40946 -2.480742,-2.94141 -5.032515,-5.62689 l -4.639279,-4.88285 4.818026,-5.08098 c 3.69522,-3.89649 4.893457,-5.36119 5.139749,-6.28488 0.93971,-3.52414 -2.074505,-6.93412 -5.5051,-6.87562 z"
       id="path826-3"
       inkscape:connector-curvature="0" />
  </g>
</svg>
