<?xml version="1.0" encoding="UTF-8" standalone="no"?>
<svg
   xmlns:dc="http://purl.org/dc/elements/1.1/"
   xmlns:cc="http://creativecommons.org/ns#"
   xmlns:rdf="http://www.w3.org/1999/02/22-rdf-syntax-ns#"
   xmlns:svg="http://www.w3.org/2000/svg"
   xmlns="http://www.w3.org/2000/svg"
   xmlns:sodipodi="http://sodipodi.sourceforge.net/DTD/sodipodi-0.dtd"
   xmlns:inkscape="http://www.inkscape.org/namespaces/inkscape"
   width="800"
   height="800"
   version="1.1"
   viewBox="0 0 800.00001 800.00001"
   id="svg2"
   inkscape:version="0.92.3 (2405546, 2018-03-11)"
   sodipodi:docname="share_active.svg">
  <metadata
     id="metadata12">
    <rdf:RDF>
      <cc:Work
         rdf:about="">
        <dc:format>image/svg+xml</dc:format>
        <dc:type
           rdf:resource="http://purl.org/dc/dcmitype/StillImage" />
        <dc:title></dc:title>
      </cc:Work>
    </rdf:RDF>
  </metadata>
  <defs
     id="defs10" />
  <sodipodi:namedview
     pagecolor="#ffffff"
     bordercolor="#666666"
     borderopacity="1"
     objecttolerance="10"
     gridtolerance="10"
     guidetolerance="10"
     inkscape:pageopacity="0"
     inkscape:pageshadow="2"
     inkscape:window-width="1920"
     inkscape:window-height="1012"
     id="namedview8"
     showgrid="false"
     inkscape:zoom="0.59"
     inkscape:cx="-164.70761"
     inkscape:cy="467.7538"
     inkscape:window-x="0"
     inkscape:window-y="0"
     inkscape:window-maximized="1"
     inkscape:current-layer="svg2" />
  <path
     style="fill:#aa0000;fill-opacity:1;stroke-width:1.08637476"
     d="M 556.07212,706.58783 C 501.16698,697.9279 460.66456,654.05212 457.8343,600.168 l -0.71298,-13.57442 -89.62802,-45.01438 -89.62801,-45.01436 -7.05935,5.19757 c -8.93209,6.57644 -26.39871,15.08728 -36.79049,17.92668 -19.93249,5.44625 -41.70532,5.2516 -61.73196,-0.55189 -55.34457,-16.03823 -90.514491,-71.45353 -81.301077,-128.1016 7.177907,-44.13288 38.737567,-79.91681 81.381637,-92.27457 19.97546,-5.78867 41.74334,-5.96701 61.73363,-0.50577 10.31767,2.81873 27.80186,11.34637 36.70826,17.90389 l 7.05935,5.19757 89.62801,-45.01436 89.62802,-45.01437 0.71298,-13.57443 c 3.73461,-71.10184 72.83437,-121.49073 142.40319,-103.84316 19.7786,5.01726 36.24816,14.35494 51.60891,29.2605 56.90488,55.21858 41.86949,149.93024 -29.33658,184.79858 -5.5203,2.70319 -14.43673,6.23519 -19.81428,7.84888 -9.1172,2.73587 -11.17108,2.93573 -30.4185,2.95994 -19.48804,0.0244 -21.18126,-0.14095 -30.31028,-2.96149 -13.13253,-4.0575 -23.33469,-8.94795 -34.3072,-16.44533 l -9.21236,-6.29468 -89.91934,44.94922 -89.91933,44.94923 v 5.98553 5.98553 l 89.91933,44.94923 89.91934,44.94922 9.21236,-6.29468 c 10.98152,-7.50353 21.18782,-12.39411 34.3072,-16.43909 9.10356,-2.80682 10.87658,-2.98121 30.31028,-2.98121 19.38033,0 21.23834,0.18144 30.4185,2.97031 53.08798,16.12787 87.08248,63.80414 83.81906,117.55376 -1.74294,28.70696 -13.81886,54.8653 -34.6682,75.0968 -21.61562,20.97509 -46.21896,31.50494 -75.76704,32.42714 -7.46883,0.2331 -16.47209,-0.0324 -20.00724,-0.58996 z"
     id="path875"
     inkscape:connector-curvature="0" />
</svg>
