<?xml version="1.0" encoding="UTF-8" standalone="no"?>
<svg
   xmlns:dc="http://purl.org/dc/elements/1.1/"
   xmlns:cc="http://creativecommons.org/ns#"
   xmlns:rdf="http://www.w3.org/1999/02/22-rdf-syntax-ns#"
   xmlns:svg="http://www.w3.org/2000/svg"
   xmlns="http://www.w3.org/2000/svg"
   xmlns:sodipodi="http://sodipodi.sourceforge.net/DTD/sodipodi-0.dtd"
   xmlns:inkscape="http://www.inkscape.org/namespaces/inkscape"
   width="800"
   height="800"
   version="1.1"
   viewBox="0 0 800.00001 800.00001"
   id="svg2"
   inkscape:version="0.92.3 (2405546, 2018-03-11)"
   sodipodi:docname="toggle_about_active.svg">
  <metadata
     id="metadata12">
    <rdf:RDF>
      <cc:Work
         rdf:about="">
        <dc:format>image/svg+xml</dc:format>
        <dc:type
           rdf:resource="http://purl.org/dc/dcmitype/StillImage" />
        <dc:title></dc:title>
      </cc:Work>
    </rdf:RDF>
  </metadata>
  <defs
     id="defs10" />
  <sodipodi:namedview
     pagecolor="#ffffff"
     bordercolor="#666666"
     borderopacity="1"
     objecttolerance="10"
     gridtolerance="10"
     guidetolerance="10"
     inkscape:pageopacity="0"
     inkscape:pageshadow="2"
     inkscape:window-width="1920"
     inkscape:window-height="1012"
     id="namedview8"
     showgrid="false"
     inkscape:zoom="0.59"
     inkscape:cx="-164.70761"
     inkscape:cy="467.7538"
     inkscape:window-x="0"
     inkscape:window-y="0"
     inkscape:window-maximized="1"
     inkscape:current-layer="svg2" />
  <g
     transform="matrix(12.654742,0,0,12.654742,-199.40897,-1386.9028)"
     id="g850"
     style="fill:#aa0000;fill-opacity:1">
    <path
       inkscape:connector-curvature="0"
       id="path834"
       transform="scale(0.26458333)"
       d="m 175.46289,432.57031 c -8.54698,-0.0148 -17.17149,0.98666 -23.98828,3.00781 -16.6947,4.94967 -28.96959,16.19549 -35.93359,32.92383 -3.28215,7.88402 -6.05231,20.80346 -6.05469,28.23243 l -0.002,4.25 h 18.36328 18.36132 l 0.62891,-5.34766 c 1.31191,-11.16257 6.64443,-20.52906 14.09766,-24.76172 4.73794,-2.69068 16.81217,-3.71475 23.25781,-1.97266 6.04309,1.63329 12.2411,6.7701 15.17969,12.58204 2.02949,4.01389 2.52919,6.47917 2.53906,12.5 0.0189,11.0067 -2.55692,15.0684 -20.07227,31.65429 -7.82581,7.4106 -15.64406,15.6787 -17.37304,18.37305 -4.22517,6.58431 -6.86231,15.64328 -7.64063,26.24414 l -0.64453,8.77344 19.40234,-0.27344 19.4004,-0.27148 0.57812,-6.5 c 0.32731,-3.6765 1.52363,-8.33132 2.75391,-10.7168 1.19633,-2.31965 8.92821,-11.24341 17.18164,-19.83008 13.01008,-13.53543 15.53076,-16.69969 18.94726,-23.7832 4.90889,-10.17774 5.98475,-14.82892 6.01563,-26.02539 0.0737,-26.63641 -15.65049,-47.85331 -41.47656,-55.96875 -6.50506,-2.0441 -14.97451,-3.07508 -23.52149,-3.08985 z"
       style="fill:#aa0000;fill-opacity:1;stroke-width:0.99999994" />
    <path
       inkscape:connector-curvature="0"
       id="path826"
       transform="scale(0.26458333)"
       d="m 176.33984,596.08398 c -2.94691,-0.0111 -5.68071,0.73234 -9.1875,2.28321 -5.66146,2.50378 -9.50204,6.58294 -12.13672,12.88867 -4.39623,10.52164 1.75645,24.44169 12.96876,29.33984 4.38213,1.91433 13.29844,1.66387 18.08007,-0.50781 8.31315,-3.77563 13.36,-11.64235 13.39844,-20.88477 0.042,-10.1201 -6.27091,-19.04113 -15.39258,-21.75 -3.01742,-0.89607 -5.43842,-1.36051 -7.73047,-1.36914 z"
       style="fill:#aa0000;fill-opacity:1;stroke-width:0.99999994" />
  </g>
</svg>
