<?xml version="1.0" encoding="UTF-8" standalone="no"?>
<svg
   xmlns:dc="http://purl.org/dc/elements/1.1/"
   xmlns:cc="http://creativecommons.org/ns#"
   xmlns:rdf="http://www.w3.org/1999/02/22-rdf-syntax-ns#"
   xmlns:svg="http://www.w3.org/2000/svg"
   xmlns="http://www.w3.org/2000/svg"
   xmlns:sodipodi="http://sodipodi.sourceforge.net/DTD/sodipodi-0.dtd"
   xmlns:inkscape="http://www.inkscape.org/namespaces/inkscape"
   width="800"
   height="800"
   version="1.1"
   viewBox="0 0 800.00001 800.00001"
   id="svg2"
   inkscape:version="0.92.3 (2405546, 2018-03-11)"
   sodipodi:docname="toggle_search_active.svg">
  <metadata
     id="metadata12">
    <rdf:RDF>
      <cc:Work
         rdf:about="">
        <dc:format>image/svg+xml</dc:format>
        <dc:type
           rdf:resource="http://purl.org/dc/dcmitype/StillImage" />
      </cc:Work>
    </rdf:RDF>
  </metadata>
  <defs
     id="defs10" />
  <sodipodi:namedview
     pagecolor="#ffffff"
     bordercolor="#666666"
     borderopacity="1"
     objecttolerance="10"
     gridtolerance="10"
     guidetolerance="10"
     inkscape:pageopacity="0"
     inkscape:pageshadow="2"
     inkscape:window-width="1920"
     inkscape:window-height="1012"
     id="namedview8"
     showgrid="false"
     inkscape:zoom="0.59"
     inkscape:cx="43.766967"
     inkscape:cy="440.63516"
     inkscape:window-x="0"
     inkscape:window-y="0"
     inkscape:window-maximized="1"
     inkscape:current-layer="svg2" />
  <g
     transform="matrix(0.79975425,0,0,0.7827999,90.478092,-83.318538)"
     id="g4"
     style="stroke:#aa0000;stroke-width:10;stroke-miterlimit:4;stroke-dasharray:none;fill:#aa0000;fill-opacity:1;stroke-opacity:1">
    <path
       d="m 87.776,340.14 a 299.7,299.7 0 0 0 0,423.83 299.7,299.7 0 0 0 370.47,42.01 l 246.39,246.39 95.361,-95.358 -246.39,-246.39 a 299.7,299.7 0 0 0 -42.01,-370.48 299.7,299.7 0 0 0 -423.83,0 z m 70.651,70.652 a 199.8,199.8 0 0 1 282.52,0 199.8,199.8 0 0 1 0,282.52 199.8,199.8 0 0 1 -282.52,0 199.8,199.8 0 0 1 0,-282.52 z"
       style="color:#000000;isolation:auto;mix-blend-mode:normal;solid-color:#000000;fill:#aa0000;stroke:#aa0000;stroke-width:10;stroke-miterlimit:4;stroke-dasharray:none;color-rendering:auto;image-rendering:auto;shape-rendering:auto;fill-opacity:1;stroke-opacity:1"
       id="path6"
       inkscape:connector-curvature="0" />
  </g>
</svg>
