<?xml version="1.0" encoding="UTF-8" standalone="no"?>
<!-- Generator: Adobe Illustrator 16.0.0, SVG Export Plug-In . SVG Version: 6.00 Build 0)  -->

<svg
   xmlns:dc="http://purl.org/dc/elements/1.1/"
   xmlns:cc="http://creativecommons.org/ns#"
   xmlns:rdf="http://www.w3.org/1999/02/22-rdf-syntax-ns#"
   xmlns:svg="http://www.w3.org/2000/svg"
   xmlns="http://www.w3.org/2000/svg"
   xmlns:sodipodi="http://sodipodi.sourceforge.net/DTD/sodipodi-0.dtd"
   xmlns:inkscape="http://www.inkscape.org/namespaces/inkscape"
   version="1.1"
   id="Layer_1"
   x="0px"
   y="0px"
   width="580px"
   height="580px"
   viewBox="0 0 580 580"
   enable-background="new 0 0 580 580"
   xml:space="preserve"
   sodipodi:docname="windrose.svg"
   inkscape:version="0.92.2 (5c3e80d, 2017-08-06)"><metadata
     id="metadata11"><rdf:RDF><cc:Work
         rdf:about=""><dc:format>image/svg+xml</dc:format><dc:type
           rdf:resource="http://purl.org/dc/dcmitype/StillImage" /></cc:Work></rdf:RDF></metadata><defs
     id="defs9" /><sodipodi:namedview
     pagecolor="#ffffff"
     bordercolor="#666666"
     borderopacity="1"
     objecttolerance="10"
     gridtolerance="10"
     guidetolerance="10"
     inkscape:pageopacity="0"
     inkscape:pageshadow="2"
     inkscape:window-width="1920"
     inkscape:window-height="1058"
     id="namedview7"
     showgrid="false"
     inkscape:zoom="0.81379307"
     inkscape:cx="388.6292"
     inkscape:cy="444.72573"
     inkscape:window-x="1912"
     inkscape:window-y="-8"
     inkscape:window-maximized="1"
     inkscape:current-layer="Layer_1" /><title
     id="title2">clean</title><polygon
     fill="param(fill) #000"
     stroke="param(outline) #FFF"
     stroke-width="param(outline-width) 0"
     points="344.854,317.758 426.08,304.489 562.047,282.276   425.904,263.329 343.362,251.842 370.658,220.716 439.728,141.951 358.554,203.564 325.2,228.88 313.376,154.033 291.878,17.951   272.216,153.994 260.197,237.154 222.635,207.626 140.278,142.881 206.158,220.632 234.192,253.718 154.391,264.888 17.952,283.989   153.627,306.041 233.75,319.063 215.632,339.725 146.561,418.488 227.737,356.876 259.832,332.517 272.352,425.511 290.734,562.049   313.498,426.491 328.184,339.049 349.787,356.032 432.144,420.776 366.264,343.026 "
     id="polygon4"
     stroke-opacity="255"
     fill-opacity="255"
     style="fill:#cccccc;stroke:none" /></svg>