<?xml version="1.0" encoding="UTF-8" standalone="no"?>
<svg
   xmlns:dc="http://purl.org/dc/elements/1.1/"
   xmlns:cc="http://creativecommons.org/ns#"
   xmlns:rdf="http://www.w3.org/1999/02/22-rdf-syntax-ns#"
   xmlns:svg="http://www.w3.org/2000/svg"
   xmlns="http://www.w3.org/2000/svg"
   xmlns:sodipodi="http://sodipodi.sourceforge.net/DTD/sodipodi-0.dtd"
   xmlns:inkscape="http://www.inkscape.org/namespaces/inkscape"
   id="svg4"
   version="1.1"
   viewBox="0 0 40 40"
   sodipodi:docname="zoom_extent.svg"
   inkscape:version="0.92.3 (2405546, 2018-03-11)">
  <metadata
     id="metadata8">
    <rdf:RDF>
      <cc:Work
         rdf:about="">
        <dc:format>image/svg+xml</dc:format>
        <dc:type
           rdf:resource="http://purl.org/dc/dcmitype/StillImage" />
        <dc:title />
      </cc:Work>
    </rdf:RDF>
  </metadata>
  <defs
     id="defs6">
    <marker
       inkscape:stockid="EmptyTriangleOutM"
       orient="auto"
       refY="0.0"
       refX="0.0"
       id="EmptyTriangleOutM"
       style="overflow:visible"
       inkscape:isstock="true">
      <path
         id="path4757"
         d="M 5.77,0.0 L -2.88,5.0 L -2.88,-5.0 L 5.77,0.0 z "
         style="fill-rule:evenodd;fill:#000000;stroke:#000000;stroke-width:1pt;stroke-opacity:1;fill-opacity:1"
         transform="scale(0.4) translate(-4.5,0)" />
    </marker>
    <marker
       inkscape:stockid="EmptyTriangleOutS"
       orient="auto"
       refY="0.0"
       refX="0.0"
       id="EmptyTriangleOutS"
       style="overflow:visible"
       inkscape:isstock="true">
      <path
         id="path4760"
         d="M 5.77,0.0 L -2.88,5.0 L -2.88,-5.0 L 5.77,0.0 z "
         style="fill-rule:evenodd;fill:#000000;stroke:#000000;stroke-width:1pt;stroke-opacity:1;fill-opacity:1"
         transform="scale(0.2) translate(-3.0,0)" />
    </marker>
    <marker
       inkscape:stockid="Arrow2Send"
       orient="auto"
       refY="0.0"
       refX="0.0"
       id="Arrow2Send"
       style="overflow:visible;"
       inkscape:isstock="true">
      <path
         id="path4627"
         style="fill-rule:evenodd;stroke-width:0.625;stroke-linejoin:round;stroke:#000000;stroke-opacity:1;fill:#000000;fill-opacity:1"
         d="M 8.7185878,4.0337352 L -2.2072895,0.016013256 L 8.7185884,-4.0017078 C 6.9730900,-1.6296469 6.9831476,1.6157441 8.7185878,4.0337352 z "
         transform="scale(0.3) rotate(180) translate(-2.3,0)" />
    </marker>
    <marker
       inkscape:stockid="Arrow2Lend"
       orient="auto"
       refY="0.0"
       refX="0.0"
       id="Arrow2Lend"
       style="overflow:visible;"
       inkscape:isstock="true">
      <path
         id="path4615"
         style="fill-rule:evenodd;stroke-width:0.625;stroke-linejoin:round;stroke:#000000;stroke-opacity:1;fill:#000000;fill-opacity:1"
         d="M 8.7185878,4.0337352 L -2.2072895,0.016013256 L 8.7185884,-4.0017078 C 6.9730900,-1.6296469 6.9831476,1.6157441 8.7185878,4.0337352 z "
         transform="scale(1.1) rotate(180) translate(1,0)" />
    </marker>
  </defs>
  <sodipodi:namedview
     pagecolor="#ffffff"
     bordercolor="#666666"
     borderopacity="1"
     objecttolerance="10"
     gridtolerance="10"
     guidetolerance="10"
     inkscape:pageopacity="0"
     inkscape:pageshadow="2"
     inkscape:window-width="1920"
     inkscape:window-height="1012"
     id="namedview4"
     showgrid="false"
     inkscape:zoom="5.9"
     inkscape:cx="-22.868847"
     inkscape:cy="3.8338023"
     inkscape:window-x="0"
     inkscape:window-y="0"
     inkscape:window-maximized="1"
     inkscape:current-layer="svg4" />
  <path
     style="fill:#53676c;stroke-width:0.0440339"
     d="M 5.9654899,7.1535411 A 0.82763134,1.0023203 44.401224 0 0 5.8988114,7.6922467 L 7.2050571,14.851694 A 0.82763134,1.0023203 44.401224 0 0 8.6963618,15.10789 L 14.550479,9.1773019 A 0.82763134,1.0023203 44.401224 0 0 14.278783,7.6854469 L 7.1181047,6.4569805 A 0.82763134,1.0023203 44.401224 0 0 5.9652103,7.1537426 Z"
     id="path4138"
     inkscape:connector-curvature="0" />
  <rect
     style="color:#000000;clip-rule:nonzero;display:inline;overflow:visible;visibility:visible;opacity:1;isolation:auto;mix-blend-mode:normal;color-interpolation:sRGB;color-interpolation-filters:linearRGB;solid-color:#000000;solid-opacity:1;vector-effect:none;fill:#53676c;fill-opacity:1;fill-rule:nonzero;stroke:none;stroke-width:0.53099322;stroke-linecap:round;stroke-linejoin:round;stroke-miterlimit:4;stroke-dasharray:none;stroke-dashoffset:0;stroke-opacity:1;paint-order:markers stroke fill;color-rendering:auto;image-rendering:auto;shape-rendering:auto;text-rendering:auto;enable-background:accumulate"
     id="rect5071"
     width="21.348989"
     height="4.3171616"
     x="17.32173"
     y="-1.8613905"
     ry="0.95641172"
     rx="0.72410941"
     transform="rotate(45)" />
  <path
     style="fill:#53676c;stroke-width:0.0440339"
     d="m 33.114668,32.971949 a 0.82763142,1.0023203 44.401224 0 0 0.06668,-0.538705 l -1.306246,-7.159449 a 0.82763142,1.0023203 44.401224 0 0 -1.491303,-0.256193 l -5.854122,5.930583 a 0.82763142,1.0023203 44.401224 0 0 0.271698,1.491856 l 7.160677,1.228464 a 0.82763142,1.0023203 44.401224 0 0 1.152894,-0.696762 z"
     id="path4138-8"
     inkscape:connector-curvature="0" />
  <path
     style="fill:#53676c;stroke-width:0.0440339"
     d="m 6.7462008,33.509861 a 1.0023203,0.82763138 44.401224 0 0 0.5387057,0.06668 L 14.444354,32.270295 A 1.0023203,0.82763138 44.401224 0 0 14.700549,30.77899 L 8.7699666,24.924868 A 1.0023203,0.82763138 44.401224 0 0 7.278112,25.196563 l -1.2284678,7.160678 a 1.0023203,0.82763138 44.401224 0 0 0.6967631,1.152895 z"
     id="path4138-88"
     inkscape:connector-curvature="0" />
  <rect
     style="color:#000000;clip-rule:nonzero;display:inline;overflow:visible;visibility:visible;opacity:1;isolation:auto;mix-blend-mode:normal;color-interpolation:sRGB;color-interpolation-filters:linearRGB;solid-color:#000000;solid-opacity:1;vector-effect:none;fill:#53676c;fill-opacity:1;fill-rule:nonzero;stroke:none;stroke-width:0.54354376;stroke-linecap:round;stroke-linejoin:round;stroke-miterlimit:4;stroke-dasharray:none;stroke-dashoffset:0;stroke-opacity:1;paint-order:markers stroke fill;color-rendering:auto;image-rendering:auto;shape-rendering:auto;text-rendering:auto;enable-background:accumulate"
     id="rect5071-3"
     width="21.348989"
     height="4.523653"
     x="-10.954783"
     y="25.777273"
     ry="0.82735521"
     rx="0.98222309"
     transform="rotate(-45)" />
  <path
     style="fill:#53676c;stroke-width:0.0440339"
     d="m 32.534206,6.3570368 a 1.0023203,0.82763142 44.401224 0 0 -0.538705,-0.06668 l -7.159448,1.3062484 a 1.0023203,0.82763142 44.401224 0 0 -0.256195,1.4913032 l 5.930588,5.8541186 a 1.0023203,0.82763142 44.401224 0 0 1.491856,-0.271698 L 33.230767,7.5096516 A 1.0023203,0.82763142 44.401224 0 0 32.534004,6.3567568 Z"
     id="path4138-8-9"
     inkscape:connector-curvature="0" />
</svg>
