<?xml version="1.0" encoding="UTF-8" standalone="no"?>
<svg
   xmlns:dc="http://purl.org/dc/elements/1.1/"
   xmlns:cc="http://creativecommons.org/ns#"
   xmlns:rdf="http://www.w3.org/1999/02/22-rdf-syntax-ns#"
   xmlns:svg="http://www.w3.org/2000/svg"
   xmlns="http://www.w3.org/2000/svg"
   xmlns:sodipodi="http://sodipodi.sourceforge.net/DTD/sodipodi-0.dtd"
   xmlns:inkscape="http://www.inkscape.org/namespaces/inkscape"
   id="svg4"
   version="1.1"
   viewBox="0 0 40 40"
   sodipodi:docname="zoom_extent.svg"
   inkscape:version="0.92.3 (2405546, 2018-03-11)">
  <metadata
     id="metadata8">
    <rdf:RDF>
      <cc:Work
         rdf:about="">
        <dc:format>image/svg+xml</dc:format>
        <dc:type
           rdf:resource="http://purl.org/dc/dcmitype/StillImage" />
        <dc:title />
      </cc:Work>
    </rdf:RDF>
  </metadata>
  <defs
     id="defs6">
    <marker
       inkscape:stockid="EmptyTriangleOutM"
       orient="auto"
       refY="0.0"
       refX="0.0"
       id="EmptyTriangleOutM"
       style="overflow:visible"
       inkscape:isstock="true">
      <path
         id="path4757"
         d="M 5.77,0.0 L -2.88,5.0 L -2.88,-5.0 L 5.77,0.0 z "
         style="fill-rule:evenodd;fill:#000000;stroke:#000000;stroke-width:1pt;stroke-opacity:1;fill-opacity:1"
         transform="scale(0.4) translate(-4.5,0)" />
    </marker>
    <marker
       inkscape:stockid="EmptyTriangleOutS"
       orient="auto"
       refY="0.0"
       refX="0.0"
       id="EmptyTriangleOutS"
       style="overflow:visible"
       inkscape:isstock="true">
      <path
         id="path4760"
         d="M 5.77,0.0 L -2.88,5.0 L -2.88,-5.0 L 5.77,0.0 z "
         style="fill-rule:evenodd;fill:#000000;stroke:#000000;stroke-width:1pt;stroke-opacity:1;fill-opacity:1"
         transform="scale(0.2) translate(-3.0,0)" />
    </marker>
    <marker
       inkscape:stockid="Arrow2Send"
       orient="auto"
       refY="0.0"
       refX="0.0"
       id="Arrow2Send"
       style="overflow:visible;"
       inkscape:isstock="true">
      <path
         id="path4627"
         style="fill-rule:evenodd;stroke-width:0.625;stroke-linejoin:round;stroke:#000000;stroke-opacity:1;fill:#000000;fill-opacity:1"
         d="M 8.7185878,4.0337352 L -2.2072895,0.016013256 L 8.7185884,-4.0017078 C 6.9730900,-1.6296469 6.9831476,1.6157441 8.7185878,4.0337352 z "
         transform="scale(0.3) rotate(180) translate(-2.3,0)" />
    </marker>
    <marker
       inkscape:stockid="Arrow2Lend"
       orient="auto"
       refY="0.0"
       refX="0.0"
       id="Arrow2Lend"
       style="overflow:visible;"
       inkscape:isstock="true">
      <path
         id="path4615"
         style="fill-rule:evenodd;stroke-width:0.625;stroke-linejoin:round;stroke:#000000;stroke-opacity:1;fill:#000000;fill-opacity:1"
         d="M 8.7185878,4.0337352 L -2.2072895,0.016013256 L 8.7185884,-4.0017078 C 6.9730900,-1.6296469 6.9831476,1.6157441 8.7185878,4.0337352 z "
         transform="scale(1.1) rotate(180) translate(1,0)" />
    </marker>
    <filter
       inkscape:collect="always"
       style="color-interpolation-filters:sRGB"
       id="filter849"
       x="-0.036503627"
       width="1.0730073"
       y="-0.036527564"
       height="1.0730551">
      <feGaussianBlur
         inkscape:collect="always"
         stdDeviation="0.12674306"
         id="feGaussianBlur851" />
    </filter>
    <filter
       inkscape:collect="always"
       style="color-interpolation-filters:sRGB"
       id="filter853"
       x="-0.018718248"
       width="1.0374365"
       y="-0.018718248"
       height="1.0374365">
      <feGaussianBlur
         inkscape:collect="always"
         stdDeviation="0.12674306"
         id="feGaussianBlur855" />
    </filter>
    <filter
       inkscape:collect="always"
       style="color-interpolation-filters:sRGB"
       id="filter857"
       x="-0.036503637"
       width="1.0730073"
       y="-0.036527555"
       height="1.0730551">
      <feGaussianBlur
         inkscape:collect="always"
         stdDeviation="0.12674306"
         id="feGaussianBlur859" />
    </filter>
    <filter
       inkscape:collect="always"
       style="color-interpolation-filters:sRGB"
       id="filter861"
       x="-0.036527567"
       width="1.0730551"
       y="-0.036503662"
       height="1.0730073">
      <feGaussianBlur
         inkscape:collect="always"
         stdDeviation="0.12674306"
         id="feGaussianBlur863" />
    </filter>
    <filter
       inkscape:collect="always"
       style="color-interpolation-filters:sRGB"
       id="filter865"
       x="-0.018807503"
       width="1.037615"
       y="-0.018807503"
       height="1.037615">
      <feGaussianBlur
         inkscape:collect="always"
         stdDeviation="0.12674306"
         id="feGaussianBlur867" />
    </filter>
    <filter
       inkscape:collect="always"
       style="color-interpolation-filters:sRGB"
       id="filter869"
       x="-0.036527572"
       width="1.0730551"
       y="-0.03650362"
       height="1.0730072">
      <feGaussianBlur
         inkscape:collect="always"
         stdDeviation="0.12674306"
         id="feGaussianBlur871" />
    </filter>
  </defs>
  <sodipodi:namedview
     pagecolor="#ffffff"
     bordercolor="#666666"
     borderopacity="1"
     objecttolerance="10"
     gridtolerance="10"
     guidetolerance="10"
     inkscape:pageopacity="0"
     inkscape:pageshadow="2"
     inkscape:window-width="1920"
     inkscape:window-height="1012"
     id="namedview4"
     showgrid="false"
     inkscape:zoom="5.9"
     inkscape:cx="-57.106135"
     inkscape:cy="3.8338023"
     inkscape:window-x="0"
     inkscape:window-y="0"
     inkscape:window-maximized="1"
     inkscape:current-layer="svg4" />
  <path
     style="fill:#4d4d4d;stroke-width:0.04076573;filter:url(#filter869)"
     d="m 6.9747579,8.1054071 a 0.7662051,0.92792877 44.401224 0 0 -0.06173,0.4987233 l 1.209297,6.6280776 A 0.7662051,0.92792877 44.401224 0 0 9.5029463,15.46939 L 14.922575,9.9789658 A 0.7662051,0.92792877 44.401224 0 0 14.671044,8.5978353 L 8.0418264,7.4605448 A 0.7662051,0.92792877 44.401224 0 0 6.974499,8.1055937 Z"
     id="path4138"
     inkscape:connector-curvature="0" />
  <rect
     style="color:#000000;clip-rule:nonzero;display:inline;overflow:visible;visibility:visible;opacity:1;isolation:auto;mix-blend-mode:normal;color-interpolation:sRGB;color-interpolation-filters:linearRGB;solid-color:#000000;solid-opacity:1;vector-effect:none;fill:#4d4d4d;fill-opacity:1;fill-rule:nonzero;stroke:none;stroke-width:0.49158326;stroke-linecap:round;stroke-linejoin:round;stroke-miterlimit:4;stroke-dasharray:none;stroke-dashoffset:0;stroke-opacity:1;paint-order:markers stroke fill;color-rendering:auto;image-rendering:auto;shape-rendering:auto;text-rendering:auto;enable-background:accumulate;filter:url(#filter865)"
     id="rect5071"
     width="19.764482"
     height="3.9967449"
     x="18.111353"
     y="-1.7014785"
     ry="0.88542747"
     rx="0.67036653"
     transform="rotate(45)" />
  <path
     style="fill:#4d4d4d;stroke-width:0.04076573;filter:url(#filter861)"
     d="m 32.108942,32.00759 a 0.76620518,0.92792877 44.401224 0 0 0.06173,-0.498722 l -1.209297,-6.62808 A 0.76620518,0.92792877 44.401224 0 0 29.580757,24.64361 l -5.419633,5.490419 a 0.76620518,0.92792877 44.401224 0 0 0.251532,1.381131 l 6.629217,1.137288 A 0.76620518,0.92792877 44.401224 0 0 32.1092,32.0074 Z"
     id="path4138-8"
     inkscape:connector-curvature="0" />
  <path
     style="fill:#4d4d4d;stroke-width:0.04076573;filter:url(#filter857)"
     d="m 7.6975249,32.505579 a 0.92792877,0.76620514 44.401224 0 0 0.4987233,0.06173 L 14.824326,31.358012 A 0.92792877,0.76620514 44.401224 0 0 15.061507,29.97739 L 9.5710882,24.557758 a 0.92792877,0.76620514 44.401224 0 0 -1.3811302,0.25153 l -1.1372917,6.629218 a 0.92792877,0.76620514 44.401224 0 0 0.6450498,1.067327 z"
     id="path4138-88"
     inkscape:connector-curvature="0" />
  <rect
     style="color:#000000;clip-rule:nonzero;display:inline;overflow:visible;visibility:visible;opacity:1;isolation:auto;mix-blend-mode:normal;color-interpolation:sRGB;color-interpolation-filters:linearRGB;solid-color:#000000;solid-opacity:1;vector-effect:none;fill:#4d4d4d;fill-opacity:1;fill-rule:nonzero;stroke:none;stroke-width:0.50320232;stroke-linecap:round;stroke-linejoin:round;stroke-miterlimit:4;stroke-dasharray:none;stroke-dashoffset:0;stroke-opacity:1;paint-order:markers stroke fill;color-rendering:auto;image-rendering:auto;shape-rendering:auto;text-rendering:auto;enable-background:accumulate;filter:url(#filter853)"
     id="rect5071-3"
     width="19.764482"
     height="4.1879106"
     x="-10.163487"
     y="25.939333"
     ry="0.76594949"
     rx="0.90932316"
     transform="rotate(-45)" />
  <path
     style="fill:#4d4d4d;stroke-width:0.04076573;filter:url(#filter849)"
     d="M 31.571562,7.3680188 A 0.92792877,0.76620518 44.401224 0 0 31.072839,7.3062878 L 24.444761,8.5155873 A 0.92792877,0.76620518 44.401224 0 0 24.20758,9.896207 l 5.490424,5.41963 a 0.92792877,0.76620518 44.401224 0 0 1.381131,-0.251533 l 1.13729,-6.6292166 a 0.92792877,0.76620518 44.401224 0 0 -0.64505,-1.0673278 z"
     id="path4138-8-9"
     inkscape:connector-curvature="0" />
</svg>
