<?xml version="1.0" encoding="UTF-8" standalone="no"?>
<!-- Created with Inkscape (http://www.inkscape.org/) -->

<svg
   xmlns:dc="http://purl.org/dc/elements/1.1/"
   xmlns:cc="http://creativecommons.org/ns#"
   xmlns:rdf="http://www.w3.org/1999/02/22-rdf-syntax-ns#"
   xmlns:svg="http://www.w3.org/2000/svg"
   xmlns="http://www.w3.org/2000/svg"
   xmlns:sodipodi="http://sodipodi.sourceforge.net/DTD/sodipodi-0.dtd"
   xmlns:inkscape="http://www.inkscape.org/namespaces/inkscape"
   width="28.222221mm"
   height="28.470966mm"
   viewBox="0 0 99.999996 100.88138"
   id="svg2"
   version="1.1"
   inkscape:version="0.91pre4 r13712"
   sodipodi:docname="toggle_sbs.svg">
  <defs
     id="defs4" />
  <sodipodi:namedview
     id="base"
     pagecolor="#ffffff"
     bordercolor="#666666"
     borderopacity="1.0"
     inkscape:pageopacity="0.0"
     inkscape:pageshadow="2"
     inkscape:zoom="1.5158602"
     inkscape:cx="166.47912"
     inkscape:cy="-7.7196889"
     inkscape:document-units="px"
     inkscape:current-layer="layer1"
     showgrid="false"
     fit-margin-top="0"
     fit-margin-left="0"
     fit-margin-right="0"
     fit-margin-bottom="0"
     inkscape:window-width="1920"
     inkscape:window-height="1018"
     inkscape:window-x="-8"
     inkscape:window-y="-8"
     inkscape:window-maximized="1" />
  <metadata
     id="metadata7">
    <rdf:RDF>
      <cc:Work
         rdf:about="">
        <dc:format>image/svg+xml</dc:format>
        <dc:type
           rdf:resource="http://purl.org/dc/dcmitype/StillImage" />
        <dc:title />
      </cc:Work>
    </rdf:RDF>
  </metadata>
  <g
     inkscape:label="Calque 1"
     inkscape:groupmode="layer"
     id="layer1"
     transform="translate(-231.46924,-425.01527)">
    <g
       id="g4136">
      <path
         sodipodi:nodetypes="cc"
         inkscape:connector-curvature="0"
         id="path4138"
         d="m 282,429.67999 0,89.21958"
         style="fill:#666666;fill-opacity:1;fill-rule:evenodd;stroke:#4d4d4d;stroke-width:4;stroke-linecap:butt;stroke-linejoin:miter;stroke-miterlimit:2;stroke-dasharray:8, 4;stroke-dashoffset:0;stroke-opacity:1" />
      <path
         style="color:#000000;clip-rule:nonzero;display:inline;overflow:visible;visibility:visible;isolation:auto;mix-blend-mode:normal;color-interpolation:sRGB;color-interpolation-filters:linearRGB;solid-color:#000000;solid-opacity:1;fill:#333333;fill-opacity:1;fill-rule:nonzero;stroke-width:1;stroke-linecap:butt;stroke-linejoin:miter;stroke-miterlimit:4;stroke-dasharray:none;stroke-dashoffset:0;stroke-opacity:1;color-rendering:auto;image-rendering:auto;shape-rendering:auto;text-rendering:auto;enable-background:accumulate"
         inkscape:connector-curvature="0"
         d="m 236.46151,471.20058 21.38478,-21.35297 c 0.78754,-0.83096 1.77096,-1.24627 2.9522,-1.24627 1.18125,0 2.16466,0.41577 2.9522,1.24627 l 2.49277,2.46038 c 0.80925,0.80913 1.21388,1.79266 1.21388,2.95162 0,1.13701 -0.40451,2.13226 -1.21388,2.98482 l -15.94062,15.90846 15.94131,15.9412 c 0.80902,0.80913 1.21364,1.79266 1.21364,2.95173 0,1.1369 -0.40451,2.1325 -1.21364,2.98471 l -2.493,2.46003 c -0.80914,0.80914 -1.79358,1.21365 -2.9522,1.21365 -1.15907,0 -2.14329,-0.40451 -2.9522,-1.21365 L 236.46151,477.1376 c -0.80948,-0.85279 -1.21445,-1.84781 -1.21445,-2.98483 -1.2e-4,-1.15896 0.40497,-2.14306 1.21445,-2.95219 z"
         id="path4149" />
      <path
         style="color:#000000;clip-rule:nonzero;display:inline;overflow:visible;visibility:visible;isolation:auto;mix-blend-mode:normal;color-interpolation:sRGB;color-interpolation-filters:linearRGB;solid-color:#000000;solid-opacity:1;fill:#333333;fill-opacity:1;fill-rule:nonzero;stroke-width:1;stroke-linecap:butt;stroke-linejoin:miter;stroke-miterlimit:4;stroke-dasharray:none;stroke-dashoffset:0;stroke-opacity:1;color-rendering:auto;image-rendering:auto;shape-rendering:auto;text-rendering:auto;enable-background:accumulate"
         inkscape:connector-curvature="0"
         d="m 327.2648,471.20058 -21.38478,-21.35297 c -0.78754,-0.83096 -1.77096,-1.24627 -2.9522,-1.24627 -1.18125,0 -2.16466,0.41577 -2.9522,1.24627 l -2.49277,2.46038 c -0.80925,0.80913 -1.21388,1.79266 -1.21388,2.95162 0,1.13701 0.40451,2.13226 1.21388,2.98482 l 15.94062,15.90846 -15.94131,15.9412 c -0.80902,0.80913 -1.21364,1.79266 -1.21364,2.95173 0,1.1369 0.40451,2.1325 1.21364,2.98471 l 2.493,2.46003 c 0.80914,0.80914 1.79358,1.21365 2.9522,1.21365 1.15907,0 2.14329,-0.40451 2.9522,-1.21365 L 327.2648,477.1376 c 0.80948,-0.85279 1.21445,-1.84781 1.21445,-2.98483 1.2e-4,-1.15896 -0.40497,-2.14306 -1.21445,-2.95219 z"
         id="path4149-0" />
    </g>
  </g>
</svg>
