<svg id="svg4" version="1.1" viewBox="0 0 40 40" xmlns="http://www.w3.org/2000/svg">
 <path id="ico-about" d="m20.348 29.306c-0.46232-0.0018-0.89121 0.1149-1.4413 0.3582-0.8882 0.39281-1.4907 1.0327-1.9041 2.0221-0.6897 1.6507 0.27555 3.8346 2.0346 4.603 0.68748 0.30032 2.0862 0.26104 2.8365-0.07966 1.3042-0.59233 2.0959-1.8264 2.1019-3.2765 0.0067-1.5877-0.98381-2.9872-2.4149-3.4122-0.47338-0.14058-0.8532-0.21344-1.2128-0.21478zm-0.13806-25.652c-1.3409-0.0023224-2.6939 0.1548-3.7633 0.47188-2.6192 0.77653-4.5449 2.5408-5.6375 5.1652-0.51492 1.2368-0.94951 3.2637-0.94989 4.4291l-3.281e-4 0.66675h5.7616l0.09867-0.83897c0.20581-1.7513 1.0424-3.2207 2.2118-3.8847 0.7433-0.42213 2.6376-0.5828 3.6489-0.30948 0.94807 0.25624 1.9204 1.0621 2.3815 1.9739 0.3184 0.62971 0.39679 1.0164 0.39834 1.961 0.0029 1.7268-0.40114 2.364-3.149 4.966-1.2277 1.1626-2.4543 2.4598-2.7255 2.8825-0.66287 1.0329-1.0766 2.4541-1.1987 4.1172l-0.10111 1.3764 3.0439-0.04288 3.0436-0.04259 0.0907-1.0197c0.05135-0.57678 0.23903-1.307 0.43204-1.6813 0.18768-0.36391 1.4007-1.7639 2.6955-3.111 2.041-2.1234 2.4365-2.62 2.9725-3.7312 0.77012-1.5968 0.93892-2.3264 0.94375-4.0829 0.01156-4.1788-2.4552-7.5074-6.5071-8.7806-1.0205-0.32069-2.3494-0.48243-3.6901-0.48474z" stroke-width=".15688"/>
</svg>
