<svg id="svg4" width="40" height="40" version="1.1" viewBox="0 0 37.5 37.499" xmlns="http://www.w3.org/2000/svg">
 <path id="ico-info" d="m14.898 6.7997c0 2.2983 1.6089 3.9071 3.9071 3.9071 2.2524 0 3.8612-1.6548 3.8612-3.9071 0-2.2524-1.6548-3.7693-3.7693-3.9071-2.3443 0-3.9991 1.6089-3.9991 3.9071zm-1.1952 7.7223h-0.1379v2.8499h0.55161c1.1952 0 2.2064 0 2.4362 0.82739 0.04596 0.18387 0.04596 2.2064 0.04596 7.0327v6.7569h-3.1717v2.8499h0.4137c0.59757-0.13789 4.5049-0.13789 5.608-0.13789 1.0572 0 4.7345 0 5.2861 0.13789h0.36773v-2.8499h-2.8499v-17.835h-0.2758c-0.04597 0-8.2282 0.36773-8.2739 0.36773z" stroke-width=".42757"/>
</svg>
