<svg id="svg4" width="40" height="40" version="1.1" viewBox="0 0 37.5 37.499" xmlns="http://www.w3.org/2000/svg">
 <path id="ico-sbs" d="m35.525 18.081-7.8984-7.8866c-0.29087-0.30691-0.65411-0.46031-1.0903-0.46031-0.43626 0-0.79951 0.15356-1.0903 0.46031l-0.9207 0.90873c-0.29889 0.29884-0.44835 0.66212-0.44835 1.0901 0 0.41994 0.1494 0.78755 0.44835 1.1025l5.8878 5.8755-5.8878 5.8878c-0.29881 0.29884-0.44824 0.66212-0.44824 1.0901 0 0.41991 0.1494 0.78763 0.44824 1.1024l0.92078 0.90859c0.29886 0.29885 0.66246 0.44824 1.0903 0.44824 0.4281 0 0.79162-0.1494 1.0903-0.44824l7.8984-7.8866c0.29898-0.31497 0.44853-0.68247 0.44853-1.1025 4.4e-5 -0.42807-0.14957-0.79154-0.44853-1.0903zm-33.536 0 7.8984-7.8866c0.29087-0.30691 0.65411-0.46031 1.0903-0.46031 0.43627 0 0.79951 0.15356 1.0903 0.46031l0.9207 0.90873c0.29889 0.29884 0.44835 0.66212 0.44835 1.0901 0 0.41994-0.1494 0.78755-0.44835 1.1025l-5.8877 5.8755 5.8877 5.8878c0.29881 0.29884 0.44824 0.66212 0.44824 1.0901 0 0.41991-0.1494 0.78763-0.44824 1.1024l-0.92078 0.90859c-0.29884 0.29885-0.66246 0.44824-1.0903 0.44824-0.4281 0-0.79162-0.1494-1.0903-0.44824l-7.8984-7.8866c-0.29897-0.31497-0.44853-0.68247-0.44853-1.1025-4.43e-5 -0.42807 0.14957-0.79154 0.44853-1.0903zm16.081-12.38h1.4774v-2.9547h-1.4774zm0 4.4321h1.4774v-2.9547h-1.4774zm0 4.4321h1.4774v-2.9547h-1.4774zm0 4.4321h1.4774v-2.9547h-1.4774zm0 4.4321h1.4774v-2.9547h-1.4774zm0 4.4321h1.4774v-2.9547h-1.4774zm0 4.4321h1.4774v-2.9547h-1.4774zm0 3.4056h1.4774v-1.9282h-1.4774z" color="#000000" color-rendering="auto" image-rendering="auto" shape-rendering="auto" solid-color="#000000" stroke-width=".36935" style="isolation:auto;mix-blend-mode:normal"/>
</svg>
