<svg id="svg6" version="1.1" viewBox="0 0 40 40" xmlns="http://www.w3.org/2000/svg">
 <path id="ico-search" d="m 5.6481663,5.6790952 a 13.975325,13.679469 0 0 0 0,19.3441198 13.975325,13.679469 0 0 0 17.2753487,1.917395 L 34.412978,38.186492 38.859612,33.834177 27.370148,22.588294 a 13.975325,13.679469 0 0 0 -1.958992,-16.9094212 13.975325,13.679469 0 0 0 -19.7634346,0 z m 3.294462,3.2247239 a 9.3170318,9.1192751 0 0 1 13.1733987,0 9.3170318,9.1192751 0 0 1 0,12.8953399 9.3170318,9.1192751 0 0 1 -13.1733987,0 9.3170318,9.1192751 0 0 1 0,-12.8953399 z" color="#000000" color-rendering="auto" image-rendering="auto" shape-rendering="auto" solid-color="#000000" stroke-width=".050508" style="isolation:auto;mix-blend-mode:normal"/>
 <path id="ico-filter" d="M 9.8947503,33.613626 A 3.7036559,3.7036559 0 0 1 6.1910932,37.317282 3.7036559,3.7036559 0 0 1 2.4874375,33.613626 3.7036559,3.7036559 0 0 1 6.1910932,29.909971 3.7036559,3.7036559 0 0 1 9.8947503,33.613626 Z" stroke-width=".050508"/>
</svg>
