<svg id="svg6" version="1.1" viewBox="0 0 40 40" xmlns="http://www.w3.org/2000/svg">
 <path id="ico-search" d="m8.237 7.0229a12.565 12.299 0 0 0 0 17.392 12.565 12.299 0 0 0 15.532 1.7239l10.33 10.111 3.9979-3.9131-10.33-10.111a12.565 12.299 0 0 0-1.7613-15.203 12.565 12.299 0 0 0-17.769 0zm2.962 2.8993a8.3768 8.199 0 0 1 11.844 0 8.3768 8.199 0 0 1 0 11.594 8.3768 8.199 0 0 1-11.844 0 8.3768 8.199 0 0 1 0-11.594z" color="#000000" color-rendering="auto" image-rendering="auto" shape-rendering="auto" solid-color="#000000" stroke-width=".050508" style="isolation:auto;mix-blend-mode:normal"/>
 <path id="ico-filter" d="m9.3008 32.774a3.3299 3.3299 0 0 1-3.3299 3.3299 3.3299 3.3299 0 0 1-3.3299-3.3299 3.3299 3.3299 0 0 1 3.3299-3.3299 3.3299 3.3299 0 0 1 3.3299 3.3299z" stroke-width=".050508"/>
</svg>
