<svg id="svg4" version="1.1" viewBox="0 0 40 40" xmlns="http://www.w3.org/2000/svg">
 <path id="ico-sbs" d="m29.025 36.37c-3.0368-0.47897-5.2769-2.9057-5.4334-5.886l-0.03942-0.75076-9.9148-4.9794-0.39044 0.28747c-0.49402 0.36373-1.4601 0.83445-2.0348 0.99148-1.1024 0.30122-2.3066 0.29046-3.4143-0.03053-3.061-0.88704-5.0062-3.952-4.4967-7.085 0.397-2.4409 2.1426-4.4201 4.5011-5.1036 1.1048-0.32017 2.3087-0.33003 3.4144-0.02799 0.57068 0.1559 1.5377 0.62753 2.0303 0.99024l0.39044 0.28748 9.9148-4.9794 0.03946-0.75077c0.20656-3.9326 4.0283-6.7195 7.876-5.7433 1.094 0.2775 2.0048 0.79395 2.8544 1.6184 3.1474 3.0541 2.3158 8.2924-1.6225 10.221-0.30532 0.14951-0.79849 0.34486-1.0959 0.43412-0.50427 0.15132-0.61786 0.16237-1.6824 0.16371-1.0779 0.0013-1.1715-0.0077-1.6764-0.1638-0.72637-0.22442-1.2906-0.4949-1.8975-0.90956l-0.50953-0.34815-9.9471 4.9721v0.6621l9.9471 4.9721 0.50953-0.34815c0.6074-0.41501 1.1719-0.6855 1.8975-0.90922 0.5035-0.15524 0.60159-0.16489 1.6764-0.16489 1.0719 0 1.1747 0.01002 1.6824 0.16428 2.9363 0.89203 4.8164 3.5289 4.6359 6.5015-0.0964 1.5877-0.76431 3.0345-1.9175 4.1535-1.1955 1.1601-2.5564 1.7425-4.1906 1.7935-0.41308 0.01288-0.91104-0.0017-1.1065-0.03264z" stroke-width=".055309"/>
</svg>
