<svg id="svg4" version="1.1" viewBox="0 0 40 40" xmlns="http://www.w3.org/2000/svg">
 <path id="ico-share" d="m 29.306641,3.8925781 c -0.391764,0.042366 -0.780894,0.1290148 -1.16211,0.265625 -0.009,0.00353 -0.01813,0.00678 -0.02734,0.00977 -2.494372,0.7408877 -4.18487,3.3128098 -4.074222,5.8945269 0.0082,0.192678 -0.09727,0.372282 -0.269531,0.458984 l -8.496094,4.267578 c -0.01959,0.0098 -0.03982,0.01829 -0.06055,0.02539 -0.162238,0.05592 -0.407146,0.207223 -0.681641,0.361328 -0.274495,0.154105 -0.593916,0.332508 -1.011718,0.3125 -0.108577,-0.0053 -0.212317,-0.04652 -0.294922,-0.117187 -2.233283,-1.907032 -5.934645,-1.677276 -7.900391,0.5 -0.00507,0.006 -0.010275,0.01184 -0.015622,0.01758 -2.2103633,2.218756 -2.0739669,6.288043 0.3046875,8.33789 0.00667,0.0057 0.013179,0.01155 0.019531,0.01758 2.043528,1.959665 5.5458475,1.987205 7.6777345,0.138671 0.150696,-0.130375 0.365292,-0.156622 0.542969,-0.06641 L 22.4375,28.625 c 0.03123,0.01569 0.06069,0.03468 0.08789,0.05664 0.0783,0.06336 0.349377,0.165596 0.654297,0.292968 0.304919,0.127372 0.730875,0.335984 0.857421,0.826172 0.01217,0.0465 0.01743,0.09454 0.01563,0.142578 -0.118774,2.866121 2.192533,5.576931 5.035157,5.939453 0.0033,6.33e-4 0.0065,0.0013 0.0098,0.002 2.973391,0.446842 5.984229,-1.696376 6.544922,-4.644532 0.0018,-0.0072 0.0038,-0.01437 0.0059,-0.02148 0.754983,-3.186777 -1.850467,-6.735057 -5.113282,-6.935547 -0.01111,-9.22e-4 -0.02218,-0.0022 -0.0332,-0.0039 -1.560706,-0.197974 -3.110224,0.338707 -4.361328,1.320312 -0.149075,0.116768 -0.352051,0.137292 -0.521484,0.05273 l -9.017579,-4.509766 -0.0098,-0.0039 C 16.365632,21.03357 16.051528,20.93811 15.753906,20.693359 15.603455,20.569635 15.455751,20.388878 15.388672,20.15625 c -0.06708,-0.232628 -0.04652,-0.489957 0.03711,-0.736328 0.0417,-0.122552 0.130162,-0.223649 0.246094,-0.28125 l 8.527344,-4.261719 c 0.0227,-0.01091 0.04621,-0.02004 0.07031,-0.02734 0.149312,-0.04728 0.398611,-0.205298 0.683594,-0.367187 0.284983,-0.161889 0.643146,-0.357407 1.095703,-0.275391 0.08092,0.01481 0.156817,0.04974 0.220703,0.101563 1.436013,1.165617 3.415077,1.519977 5.214844,1.078125 h 0.002 c 2.944825,-0.772637 4.924319,-4.127201 4.09375,-7.0722659 -0.0021,-0.00712 -0.0041,-0.014279 -0.0059,-0.021484 -0.544517,-2.3389957 -2.741234,-4.12902 -5.089844,-4.3964844 -0.391334,-0.044566 -0.785971,-0.046273 -1.177734,-0.00391 z" stroke-width=".055309"/>
</svg>
