<svg id="svg4" width="40" height="40" version="1.1" viewBox="0 0 37.5 37.499" xmlns="http://www.w3.org/2000/svg">
 <path id="ico-sbs" d="m4.2822 21.444h29.21c0.21214 0 0.38292 0.17078 0.38292 0.38291v11.488c0 0.21214-0.17078 0.38292-0.38292 0.38292h-29.21c-0.21214 0-0.38292-0.17078-0.38292-0.38292v-11.488c0-0.21213 0.17078-0.38291 0.38292-0.38291zm0-17.213h29.21c0.21214 0 0.38292 0.17079 0.38292 0.38293v11.488c0 0.21213-0.17078 0.38291-0.38292 0.38291h-29.21c-0.21214 0-0.38292-0.17078-0.38292-0.38291v-11.488c0-0.21214 0.17078-0.38293 0.38292-0.38293z" stroke-width=".42262"/>
</svg>
