<!-- Created with Inkscape (http://www.inkscape.org/) -->
<svg id="svg4159" version="1.1" viewBox="0 0 40 40" xmlns="http://www.w3.org/2000/svg">
 <g id="layer1" transform="translate(965.09 -657.54)">
  <path id="rect840" transform="translate(-965.09 657.54)" d="m19.488 12.084c-0.37122 0-0.66992 0.2987-0.66992 0.66992v10.215a1.5341 1.5341 0 0 0-0.48828 1.1211 1.5341 1.5341 0 0 0 1.5352 1.5332 1.5341 1.5341 0 0 0 1.3809-0.87109l5.7812-1.6543c0.23267-0.066558 0.36539-0.3064 0.29883-0.53906l-0.17188-0.60352c-0.066556-0.23266-0.3064-0.36539-0.53906-0.29883l-5.4844 1.5684a1.5341 1.5341 0 0 0-0.32226-0.3418v-10.129c0-0.37122-0.2987-0.66992-0.66992-0.66992h-0.65039z"/>
  <path id="path3213" d="m-945.23 664.82c-8.6324 0-15.668 7.0356-15.668 15.668-1e-5 8.6324 7.0356 15.666 15.668 15.666 8.6324 1e-5 15.666-7.0337 15.666-15.666 0-8.6324-7.0337-15.668-15.666-15.668zm0 3.5c6.7408-1e-5 12.166 5.4272 12.166 12.168 1e-5 6.7408-5.4252 12.166-12.166 12.166-6.7408 0-12.168-5.4252-12.168-12.166 0-6.7408 5.4272-12.168 12.168-12.168z" color="#000000" color-rendering="auto" dominant-baseline="auto" image-rendering="auto" shape-rendering="auto" solid-color="#000000" style="font-feature-settings:normal;font-variant-alternates:normal;font-variant-caps:normal;font-variant-ligatures:normal;font-variant-numeric:normal;font-variant-position:normal;isolation:auto;mix-blend-mode:normal;shape-padding:0;text-decoration-color:#000000;text-decoration-line:none;text-decoration-style:solid;text-indent:0;text-orientation:mixed;text-transform:none;white-space:normal"/>
  <path id="rect4009" transform="translate(-965.09 657.54)" d="m17.51 0.037109c-0.43457 0-0.78516 0.34863-0.78516 0.7832v3.6094c0 0.43457 0.35059 0.78516 0.78516 0.78516h1.0977v1.6855h2.3535v-1.6855h1.0977c0.43457 0 0.78516-0.35059 0.78516-0.78516v-3.6094c0-0.43457-0.35059-0.7832-0.78516-0.7832h-4.5488z" stroke-width=".62123"/>
  <path id="rect4025" transform="translate(-965.09 657.54)" d="m6.8164 6.8203c-0.14198 0-0.28378 0.055269-0.39258 0.16406l-2.2793 2.2773c-0.21759 0.21759-0.21759 0.56757 0 0.78516l1.8066 1.8066c0.21759 0.21759 0.56757 0.21759 0.78516 0l0.55078-0.55078 0.84375 0.8457 1.1777-1.1777-0.84375-0.8457 0.55078-0.54883c0.21759-0.21759 0.21759-0.56757 0-0.78516l-1.8066-1.8066c-0.10879-0.10879-0.2506-0.16406-0.39258-0.16406z" stroke-width=".43988"/>
 </g>
</svg>
